<svg width="512" height="512" viewBox="0 0 512 512" fill="none" xmlns="http://www.w3.org/2000/svg">
    <defs>
        <linearGradient id="gradHybrid" x1="0%" y1="0%" x2="100%" y2="100%">
            <stop offset="0%" style="stop-color:#3B82F6;stop-opacity:1" />
            <stop offset="100%" style="stop-color:#9333EA;stop-opacity:1" />
        </linearGradient>
        <filter id="glow">
            <feGaussianBlur stdDeviation="15" result="coloredBlur"/>
            <feMerge>
                <feMergeNode in="coloredBlur"/>
                <feMergeNode in="SourceGraphic"/>
            </feMerge>
        </filter>
    </defs>
    
    <!-- Background Circle (Optional, for App Icon) -->
    <circle cx="256" cy="256" r="256" fill="#0F172A"/>

    <!-- Glass Q Shape -->
    <path d="M256 51.2 C142.8 51.2 51.2 142.8 51.2 256 C51.2 369.2 142.8 460.8 256 460.8 C307.2 460.8 353.8 441.9 389.6 410.6 L435.2 456.2 L460.8 430.6 L415.7 386.0 C447.0 350.2 466.4 305.2 466.4 256 C466.4 142.8 369.2 51.2 256 51.2 Z M256 128 C326.7 128 384 185.3 384 256 C384 326.7 326.7 384 256 384 C185.3 384 128 326.7 128 256 C128 185.3 185.3 128 256 128 Z" fill="url(#gradHybrid)" filter="url(#glow)"/>
    
    <!-- Neural Brain Nodes Inside -->
    <circle cx="256" cy="256" r="61.4" fill="#3B82F6" opacity="0.8"/>
    <circle cx="256" cy="256" r="30.7" fill="#A78BFA"/>
    
    <circle cx="179.2" cy="204.8" r="20.5" fill="#EC4899"/>
    <line x1="179.2" y1="204.8" x2="256" y2="256" stroke="white" stroke-opacity="0.5" stroke-width="8"/>
    
    <circle cx="332.8" cy="204.8" r="20.5" fill="#10B981"/>
    <line x1="332.8" y1="204.8" x2="256" y2="256" stroke="white" stroke-opacity="0.5" stroke-width="8"/>

    <circle cx="256" cy="358.4" r="20.5" fill="#FBBF24"/>
    <line x1="256" y1="358.4" x2="256" y2="256" stroke="white" stroke-opacity="0.5" stroke-width="8"/>
</svg>
